<svg width="180" height="40" viewBox="0 0 180 40" fill="none" xmlns="http://www.w3.org/2000/svg">
  <path d="M20.9997 7.33325C13.6363 7.33325 7.66634 13.3033 7.66634 20.6666C7.66634 28.0299 13.6363 33.9999 20.9997 33.9999C28.363 33.9999 34.333 28.0299 34.333 20.6666C34.333 13.3033 28.363 7.33325 20.9997 7.33325Z" fill="#0EA5E9" stroke="#0EA5E9" stroke-width="2" stroke-linecap="round" stroke-linejoin="round"/>
  <path d="M17.3333 24.6666L24.6666 17.3333" stroke="white" stroke-width="2" stroke-linecap="round" stroke-linejoin="round"/>
  <path d="M17.3333 17.3333H24.6666V24.6666" stroke="white" stroke-width="2" stroke-linecap="round" stroke-linejoin="round"/>
  <path d="M49.032 27V13.2H53.384C54.232 13.2 54.984 13.376 55.64 13.728C56.296 14.08 56.808 14.576 57.176 15.216C57.544 15.856 57.728 16.592 57.728 17.424C57.728 18.256 57.544 18.992 57.176 19.632C56.808 20.272 56.296 20.768 55.64 21.12C54.984 21.472 54.232 21.648 53.384 21.648H50.76V27H49.032ZM50.76 20.064H53.312C53.856 20.064 54.336 19.952 54.752 19.728C55.168 19.504 55.488 19.184 55.712 18.768C55.936 18.352 56.048 17.888 56.048 17.376C56.048 16.848 55.936 16.384 55.712 15.984C55.488 15.568 55.168 15.248 54.752 15.024C54.336 14.8 53.856 14.688 53.312 14.688H50.76V20.064Z" fill="black"/>
  <path d="M63.9918 27.192C63.0518 27.192 62.2118 26.976 61.4718 26.544C60.7318 26.112 60.1438 25.504 59.7078 24.72C59.2878 23.936 59.0778 23.024 59.0778 21.984C59.0778 20.944 59.2958 20.032 59.7318 19.248C60.1678 18.464 60.7638 17.856 61.5198 17.424C62.2758 16.992 63.1318 16.776 64.0878 16.776C65.0438 16.776 65.8878 16.992 66.6198 17.424C67.3678 17.856 67.9478 18.464 68.3598 19.248C68.7878 20.032 69.0018 20.944 69.0018 21.984C69.0018 23.024 68.7798 23.936 68.3358 24.72C67.8918 25.504 67.2798 26.112 66.4998 26.544C65.7358 26.976 64.9158 27.192 63.9918 27.192ZM63.9918 25.584C64.5518 25.584 65.0598 25.456 65.5158 25.2C65.9718 24.944 66.3358 24.544 66.6078 24C66.8798 23.456 67.0158 22.784 67.0158 21.984C67.0158 21.168 66.8798 20.488 66.6078 19.944C66.3518 19.4 65.9958 19 65.5398 18.744C65.0998 18.488 64.6078 18.36 64.0638 18.36C63.5038 18.36 62.9958 18.488 62.5398 18.744C62.0838 19 61.7198 19.4 61.4478 19.944C61.1918 20.488 61.0638 21.168 61.0638 21.984C61.0638 22.784 61.1918 23.456 61.4478 24C61.7198 24.544 62.0758 24.944 62.5158 25.2C62.9718 25.456 63.4638 25.584 63.9918 25.584Z" fill="black"/>
  <path d="M75.0611 27.192C74.1051 27.192 73.2651 26.976 72.5411 26.544C71.8171 26.112 71.2451 25.504 70.8251 24.72C70.4051 23.936 70.1951 23.024 70.1951 21.984C70.1951 20.944 70.4051 20.032 70.8251 19.248C71.2611 18.464 71.8491 17.856 72.5891 17.424C73.3291 16.992 74.1771 16.776 75.1331 16.776C75.8891 16.776 76.5691 16.92 77.1731 17.208C77.7931 17.496 78.3011 17.888 78.6971 18.384V16.968H80.6351V27H78.6971V25.536C78.3171 26.048 77.8091 26.456 77.1731 26.76C76.5371 27.048 75.8331 27.192 75.0611 27.192ZM75.5171 25.56C76.0771 25.56 76.5851 25.432 77.0411 25.176C77.4971 24.92 77.8531 24.52 78.1091 23.976C78.3811 23.432 78.5171 22.768 78.5171 21.984C78.5171 21.2 78.3811 20.536 78.1091 19.992C77.8531 19.448 77.4971 19.048 77.0411 18.792C76.5851 18.536 76.0771 18.408 75.5171 18.408C74.9731 18.408 74.4651 18.536 73.9931 18.792C73.5371 19.048 73.1731 19.448 72.9011 19.992C72.6451 20.536 72.5171 21.2 72.5171 21.984C72.5171 22.768 72.6451 23.432 72.9011 23.976C73.1731 24.52 73.5371 24.92 73.9931 25.176C74.4651 25.432 74.9731 25.56 75.5171 25.56Z" fill="black"/>
  <path d="M90.9775 17.064C92.5855 17.064 93.8535 17.568 94.7775 18.576C95.7015 19.584 96.1615 21.024 96.1615 22.896V27H94.2235V23.064C94.2235 21.752 93.9355 20.776 93.3595 20.136C92.7995 19.48 92.0035 19.152 90.9695 19.152C89.9195 19.152 89.0835 19.48 88.4615 20.136C87.8555 20.776 87.5525 21.752 87.5525 23.064V27H85.6145V13.2H87.5525V18.504C87.9805 18.056 88.5045 17.704 89.1245 17.448C89.7605 17.192 90.4365 17.064 91.1775 17.064H90.9775Z" fill="black"/>
  <path d="M107.089 21.696C107.089 22.032 107.065 22.392 107.017 22.776H99.2531C99.3171 23.8 99.6681 24.584 100.305 25.128C100.941 25.672 101.713 25.944 102.625 25.944C103.857 25.944 104.793 25.424 105.433 24.384L106.961 25.224C106.545 25.976 105.961 26.552 105.217 26.952C104.473 27.352 103.609 27.552 102.625 27.552C101.521 27.552 100.545 27.328 99.6971 26.88C98.8491 26.416 98.1891 25.768 97.7171 24.936C97.2611 24.104 97.0331 23.144 97.0331 22.056C97.0331 20.968 97.2531 20.008 97.6931 19.176C98.1491 18.344 98.7811 17.704 99.5851 17.256C100.405 16.792 101.329 16.56 102.353 16.56C103.377 16.56 104.277 16.792 105.049 17.256C105.837 17.704 106.449 18.344 106.889 19.176C107.345 20.008 107.089 20.84 107.089 21.696ZM102.353 18.144C101.537 18.144 100.853 18.416 100.305 18.96C99.7571 19.504 99.4451 20.248 99.3651 21.192H105.341C105.261 20.264 104.941 19.528 104.377 18.984C103.829 18.424 103.153 18.144 102.353 18.144Z" fill="black"/>
  <path d="M115.876 17.064C117.644 17.064 118.98 17.608 119.884 18.696C120.788 19.784 121.24 21.304 121.24 23.256V27H119.302V23.448C119.302 22.008 119 20.936 118.396 20.232C117.808 19.528 116.948 19.176 115.804 19.176C114.644 19.176 113.732 19.536 113.062 20.256C112.394 20.96 112.058 22.024 112.058 23.448V27H110.122V17.208H112.058V18.672C112.47 18.144 113.014 17.744 113.688 17.472C114.364 17.2 115.092 17.064 115.876 17.064Z" fill="black"/>
  <path d="M130.376 17.064C131.32 17.064 132.16 17.28 132.896 17.712C133.648 18.128 134.236 18.72 134.656 19.488C135.076 20.256 135.286 21.16 135.286 22.2C135.286 23.24 135.076 24.16 134.656 24.96C134.236 25.744 133.648 26.352 132.896 26.784C132.16 27.216 131.32 27.432 130.376 27.432C129.624 27.432 128.952 27.296 128.36 27.024C127.768 26.736 127.28 26.352 126.896 25.872V31.104H124.96V17.208H126.896V18.72C127.28 18.24 127.768 17.864 128.36 17.592C128.952 17.304 129.624 17.16 130.376 17.064ZM129.944 25.752C130.488 25.752 130.992 25.624 131.456 25.368C131.92 25.096 132.282 24.696 132.543 24.168C132.819 23.64 132.958 22.984 132.958 22.2C132.958 21.416 132.819 20.76 132.543 20.232C132.282 19.688 131.92 19.288 131.456 19.032C130.992 18.76 130.488 18.624 129.944 18.624C129.4 18.624 128.896 18.76 128.432 19.032C127.984 19.288 127.627 19.688 127.352 20.232C127.091 20.76 126.96 21.416 126.96 22.2C126.96 22.984 127.091 23.64 127.352 24.168C127.627 24.696 127.984 25.096 128.432 25.368C128.896 25.624 129.4 25.752 129.944 25.752Z" fill="black"/>
  <path d="M143.287 27.192C142.347 27.192 141.507 26.976 140.767 26.544C140.027 26.112 139.443 25.504 139.007 24.72C138.587 23.936 138.377 23.024 138.377 21.984C138.377 20.944 138.595 20.032 139.031 19.248C139.467 18.464 140.063 17.856 140.819 17.424C141.575 16.992 142.431 16.776 143.387 16.776C144.343 16.776 145.187 16.992 145.919 17.424C146.667 17.856 147.247 18.464 147.659 19.248C148.087 20.032 148.301 20.944 148.301 21.984C148.301 23.024 148.079 23.936 147.635 24.72C147.191 25.504 146.579 26.112 145.799 26.544C145.035 26.976 144.211 27.192 143.287 27.192ZM143.287 25.584C143.847 25.584 144.355 25.456 144.811 25.2C145.267 24.944 145.631 24.544 145.903 24C146.175 23.456 146.311 22.784 146.311 21.984C146.311 21.168 146.175 20.488 145.903 19.944C145.647 19.4 145.291 19 144.835 18.744C144.395 18.488 143.903 18.36 143.359 18.36C142.799 18.36 142.291 18.488 141.835 18.744C141.379 19 141.015 19.4 140.743 19.944C140.487 20.488 140.359 21.168 140.359 21.984C140.359 22.784 140.487 23.456 140.743 24C141.015 24.544 141.371 24.944 141.811 25.2C142.267 25.456 142.759 25.584 143.287 25.584Z" fill="black"/>
</svg> 