<svg width="64" height="64" viewBox="0 0 64 64" fill="none" xmlns="http://www.w3.org/2000/svg">
  <rect width="64" height="64" rx="16" fill="#E0F2FE"/>
  <path d="M32 14L36.3301 20.7532H27.6699L32 14Z" fill="#0EA5E9"/>
  <path d="M32 50L27.6699 43.2468H36.3301L32 50Z" fill="#0EA5E9"/>
  <path d="M14 32L20.7532 27.6699V36.3301L14 32Z" fill="#0EA5E9"/>
  <path d="M50 32L43.2468 36.3301V27.6699L50 32Z" fill="#0EA5E9"/>
  <path d="M19.0754 19.0754L25.8286 22.1716L19.7652 28.2349L19.0754 19.0754Z" fill="#7DD3FC"/>
  <path d="M44.9246 44.9246L38.1714 41.8284L44.2348 35.7651L44.9246 44.9246Z" fill="#7DD3FC"/>
  <path d="M19.0754 44.9246L22.1716 38.1714L28.2349 44.2348L19.0754 44.9246Z" fill="#7DD3FC"/>
  <path d="M44.9246 19.0754L41.8284 25.8286L35.7651 19.7652L44.9246 19.0754Z" fill="#7DD3FC"/>
  <circle cx="32" cy="32" r="8" fill="white" stroke="#0EA5E9" stroke-width="2"/>
  <circle cx="32" cy="32" r="4" fill="#0EA5E9"/>
</svg> 